<?xml version="1.0" encoding="utf-8"?>
<!-- Generator: Adobe Illustrator 17.0.0, SVG Export Plug-In . SVG Version: 6.00 Build 0)  -->
<!DOCTYPE svg PUBLIC "-//W3C//DTD SVG 1.1//EN" "http://www.w3.org/Graphics/SVG/1.1/DTD/svg11.dtd">
<svg version="1.1" id="Layer_1" xmlns="http://www.w3.org/2000/svg" xmlns:xlink="http://www.w3.org/1999/xlink" x="0px" y="0px"
	 width="512px" height="512px" viewBox="0 0 512 512" enable-background="new 0 0 512 512" xml:space="preserve">
<g>
	<path fill="#770610" d="M417.493,22.007H94.501c-44.297,0-80.565,36.268-80.565,80.567v322.99c0,44.3,36.268,80.567,80.565,80.567
		h322.991c44.299,0,80.571-36.266,80.571-80.567v-322.99C498.064,58.274,461.792,22.007,417.493,22.007z"/>
	<path fill="#BE1E2D" d="M417.493,5.869H94.501c-44.297,0-80.565,36.268-80.565,80.567v322.99c0,44.3,36.268,80.567,80.565,80.567
		h322.991c44.299,0,80.571-36.266,80.571-80.567V86.436C498.064,42.137,461.792,5.869,417.493,5.869z"/>
	<g>
		<g>
			<defs>
				<path id="SVGID_1_" d="M417.493,5.869H94.501c-44.298,0-80.565,36.268-80.565,80.567v322.99c0,44.3,36.267,80.567,80.565,80.567
					h322.991c44.299,0,80.571-36.266,80.571-80.567V86.436C498.064,42.137,461.792,5.869,417.493,5.869z"/>
			</defs>
			<clipPath id="SVGID_2_">
				<use xlink:href="#SVGID_1_"  overflow="visible"/>
			</clipPath>
		</g>
	</g>
	<path fill="#A6A8AB" d="M427.756,344.749c0,41.107-33.633,74.747-74.747,74.747h-184.5c-41.11,0-74.743-33.64-74.743-74.747
		V160.634c0-41.109,33.633-74.744,74.743-74.744h184.5c41.114,0,74.747,33.635,74.747,74.744V344.749z"/>
	
		<linearGradient id="SVGID_3_" gradientUnits="userSpaceOnUse" x1="139.004" y1="125.0685" x2="472.995" y2="125.0685" gradientTransform="matrix(1 0 0 -1 -50 373)">
		<stop  offset="0" style="stop-color:#FFFFFF"/>
		<stop  offset="0.3162" style="stop-color:#F4F5F5"/>
		<stop  offset="0.8637" style="stop-color:#D8DADB"/>
		<stop  offset="1" style="stop-color:#D0D2D3"/>
	</linearGradient>
	<path fill="url(#SVGID_3_)" d="M422.995,339.986c0,41.108-33.634,74.747-74.747,74.747h-184.5
		c-41.112,0-74.744-33.639-74.744-74.747V155.873c0-41.109,33.632-74.743,74.744-74.743h184.5c41.113,0,74.747,33.633,74.747,74.743
		V339.986z"/>
	<path fill="#F1F1F2" d="M383.837,89.966c20.638,13.32,34.382,36.481,34.382,62.705v183.825c0,41.044-33.634,74.631-74.747,74.631
		h-184.5c-12.864,0-24.996-3.293-35.596-9.067c11.662,7.523,25.517,11.918,40.358,11.918h184.5c41.11,0,74.747-33.588,74.747-74.629
		V155.524C422.981,127.327,407.105,102.651,383.837,89.966z"/>
	<g>
		<g>
			<g>
				<path fill="#A3A3A3" d="M201.37,302.264l31.699-17.591l22.956,81.059l22.905-80.967l31.717,17.784l-17.792-31.65l81.193-22.989
					l-81.193-22.687l17.674-31.507l-31.633,17.566l-22.872-81.152l-22.904,80.933l-31.617-17.876l17.674,31.734l-81.226,22.989
					l81.193,22.77L201.37,302.264z M213.041,290.627l16.985-16.869l0,0l0,0l1.815,6.425L213.041,290.627z M299.009,290.853
					l-16.968-16.96l6.408-1.774L299.009,290.853z M298.926,205.262l-16.935,16.85l-1.834-6.458L298.926,205.262z M213.158,204.858
					l16.885,17.019v0.008l-6.375,1.817L213.158,204.858z M163.177,247.91h92.847l-20.449-20.433l20.449-72.221v92.654l20.382-20.348
					l72.4,20.348h-92.781l20.417,20.4l-20.417,72.195V247.91l-20.382,20.299L163.177,247.91z"/>
			</g>
		</g>
		<g>
			<polygon fill="#BE1E2D" points="239.106,231.464 352.64,150.69 271.867,264.231 			"/>
			<polygon fill="#6D6D6D" points="239.106,231.464 158.283,345.03 271.867,264.231 			"/>
		</g>
	</g>
</g>
</svg>
