<?xml version="1.0" encoding="utf-8"?>
<!-- Generator: Adobe Illustrator 17.0.0, SVG Export Plug-In . SVG Version: 6.00 Build 0)  -->
<!DOCTYPE svg PUBLIC "-//W3C//DTD SVG 1.1//EN" "http://www.w3.org/Graphics/SVG/1.1/DTD/svg11.dtd">
<svg version="1.1" id="Layer_1" xmlns="http://www.w3.org/2000/svg" xmlns:xlink="http://www.w3.org/1999/xlink" x="0px" y="0px"
	 width="512px" height="512px" viewBox="0 0 512 512" enable-background="new 0 0 512 512" xml:space="preserve">
<g>
	<path fill="#8F5402" d="M417.492,22.007H94.501c-44.297,0-80.565,36.267-80.565,80.567v322.99
		c0,44.301,36.268,80.566,80.565,80.566h322.991c44.3,0,80.571-36.266,80.571-80.566v-322.99
		C498.064,58.274,461.792,22.007,417.492,22.007z"/>
	<path fill="#F6921E" d="M417.492,5.869H94.501c-44.297,0-80.565,36.267-80.565,80.567v322.99c0,44.301,36.268,80.566,80.565,80.566
		h322.991c44.3,0,80.571-36.266,80.571-80.566V86.436C498.064,42.137,461.792,5.869,417.492,5.869z"/>
	<g>
		<g>
			<defs>
				<path id="SVGID_1_" d="M417.492,5.869H94.501c-44.298,0-80.565,36.267-80.565,80.567v322.99
					c0,44.301,36.267,80.566,80.565,80.566h322.991c44.3,0,80.571-36.266,80.571-80.566V86.436
					C498.064,42.137,461.792,5.869,417.492,5.869z"/>
			</defs>
			<clipPath id="SVGID_2_">
				<use xlink:href="#SVGID_1_"  overflow="visible"/>
			</clipPath>
		</g>
	</g>
	<path fill="#A6A8AB" d="M427.756,344.749c0,41.107-33.633,74.747-74.747,74.747h-184.5c-41.11,0-74.743-33.64-74.743-74.747
		V160.634c0-41.109,33.633-74.744,74.743-74.744h184.5c41.114,0,74.747,33.635,74.747,74.744V344.749z"/>
	
		<linearGradient id="SVGID_3_" gradientUnits="userSpaceOnUse" x1="139.004" y1="125.0685" x2="472.995" y2="125.0685" gradientTransform="matrix(1 0 0 -1 -50 373)">
		<stop  offset="0" style="stop-color:#FFFFFF"/>
		<stop  offset="0.3162" style="stop-color:#F4F5F5"/>
		<stop  offset="0.8637" style="stop-color:#D8DADB"/>
		<stop  offset="1" style="stop-color:#D0D2D3"/>
	</linearGradient>
	<path fill="url(#SVGID_3_)" d="M422.995,339.986c0,41.108-33.634,74.747-74.747,74.747h-184.5
		c-41.112,0-74.744-33.639-74.744-74.747V155.873c0-41.109,33.632-74.743,74.744-74.743h184.5c41.113,0,74.747,33.633,74.747,74.743
		V339.986z"/>
	<path fill="#F1F1F2" d="M383.837,89.966c20.638,13.32,34.382,36.481,34.382,62.705v183.825c0,41.044-33.634,74.63-74.747,74.63
		h-184.5c-12.864,0-24.996-3.293-35.596-9.066c11.662,7.524,25.517,11.918,40.358,11.918h184.5c41.11,0,74.747-33.588,74.747-74.629
		V155.524C422.981,127.327,407.105,102.651,383.837,89.966z"/>
	<path fill="#F6921E" d="M281.426,174.507c-27.555-27.568-72.409-27.568-99.973,0c-27.557,27.57-27.557,72.409,0,99.985
		c25.366,25.346,65.303,27.367,93.016,6.086l17.124,17.133c-1.497,3.677-0.748,8.068,2.214,11.038l27.745,27.753
		c3.957,3.955,10.429,3.955,14.386,0l10.259-10.238c3.95-3.971,3.95-10.436,0-14.394l-27.768-27.753
		c-2.962-2.97-7.344-3.701-11.031-2.206l-17.571-17.572C308.624,236.833,305.832,198.9,281.426,174.507z M196.718,259.234
		c-19.149-19.153-19.149-50.316,0-69.46c19.145-19.144,50.316-19.168,69.466,0c19.153,19.145,19.153,50.308,0,69.46
		C247.033,278.378,215.863,278.378,196.718,259.234z"/>
</g>
</svg>
