<?xml version="1.0" encoding="utf-8"?>
<!-- Generator: Adobe Illustrator 17.0.0, SVG Export Plug-In . SVG Version: 6.00 Build 0)  -->
<!DOCTYPE svg PUBLIC "-//W3C//DTD SVG 1.1//EN" "http://www.w3.org/Graphics/SVG/1.1/DTD/svg11.dtd">
<svg version="1.1" id="Layer_1" xmlns="http://www.w3.org/2000/svg" xmlns:xlink="http://www.w3.org/1999/xlink" x="0px" y="0px"
	 width="512px" height="512px" viewBox="0 0 512 512" enable-background="new 0 0 512 512" xml:space="preserve">
<g>
	<path fill="#611C5A" d="M417.879,21.446H94.114c-44.403,0-80.758,36.355-80.758,80.76V425.97c0,44.407,36.355,80.76,80.758,80.76
		h323.765c44.406,0,80.764-36.353,80.764-80.76V102.206C498.644,57.801,462.285,21.446,417.879,21.446z"/>
	<path fill="#B332B1" d="M417.879,5.27H94.114c-44.404,0-80.758,36.355-80.758,80.76v323.764c0,44.407,36.354,80.76,80.758,80.76
		h323.765c44.406,0,80.764-36.353,80.764-80.76V86.03C498.644,41.625,462.285,5.27,417.879,5.27z"/>
	<g>
		<g>
			<defs>
				<path id="SVGID_1_" d="M417.879,5.27H94.114c-44.405,0-80.758,36.355-80.758,80.76v323.764c0,44.407,36.353,80.76,80.758,80.76
					h323.765c44.406,0,80.764-36.353,80.764-80.76V86.03C498.644,41.625,462.285,5.27,417.879,5.27z"/>
			</defs>
			<clipPath id="SVGID_2_">
				<use xlink:href="#SVGID_1_"  overflow="visible"/>
			</clipPath>
		</g>
	</g>
	<path fill="#A6A8AB" d="M428.168,344.962c0,41.205-33.714,74.926-74.926,74.926H168.3c-41.209,0-74.923-33.721-74.923-74.926
		V160.406c0-41.208,33.713-74.923,74.923-74.923h184.942c41.213,0,74.926,33.715,74.926,74.923V344.962z"/>
	
		<linearGradient id="SVGID_3_" gradientUnits="userSpaceOnUse" x1="138.604" y1="125.0875" x2="473.396" y2="125.0875" gradientTransform="matrix(1 0 0 -1 -50 373)">
		<stop  offset="0" style="stop-color:#FFFFFF"/>
		<stop  offset="0.3162" style="stop-color:#F4F5F5"/>
		<stop  offset="0.8637" style="stop-color:#D8DADB"/>
		<stop  offset="1" style="stop-color:#D0D2D3"/>
	</linearGradient>
	<path fill="url(#SVGID_3_)" d="M423.395,340.188c0,41.207-33.715,74.926-74.926,74.926H163.528
		c-41.21,0-74.924-33.719-74.924-74.926V155.633c0-41.208,33.714-74.922,74.924-74.922H348.47c41.211,0,74.926,33.714,74.926,74.922
		v184.555H423.395z"/>
	<path fill="#F1F1F2" d="M384.144,89.569c20.688,13.352,34.465,36.568,34.465,62.855V336.69c0,41.142-33.715,74.809-74.926,74.809
		H158.739c-12.895,0-25.056-3.301-35.681-9.088c11.69,7.542,25.578,11.947,40.455,11.947h184.943
		c41.209,0,74.926-33.668,74.926-74.808V155.284C423.381,127.019,407.467,102.284,384.144,89.569z"/>
	<path fill="#B332B1" d="M255.998,158.463c-40.872,0-74.006,33.136-74.006,74.009c0,21.842,9.465,41.464,24.514,55.012
		l49.492,49.879l49.497-49.879c15.047-13.548,24.513-33.176,24.513-55.012C330.008,191.599,296.874,158.463,255.998,158.463z
		 M255.998,266.707c-18.906,0-34.232-15.33-34.232-34.235c0-18.908,15.326-34.229,34.232-34.229
		c18.908,0,34.234,15.321,34.234,34.229C290.232,251.377,274.906,266.707,255.998,266.707z"/>
</g>
</svg>
